<?xml version="1.0" encoding="UTF-8" standalone="no"?>
<!-- Created with Inkscape (http://www.inkscape.org/) -->
<svg
   xmlns:dc="http://purl.org/dc/elements/1.1/"
   xmlns:cc="http://web.resource.org/cc/"
   xmlns:rdf="http://www.w3.org/1999/02/22-rdf-syntax-ns#"
   xmlns:svg="http://www.w3.org/2000/svg"
   xmlns="http://www.w3.org/2000/svg"
   xmlns:sodipodi="http://inkscape.sourceforge.net/DTD/sodipodi-0.dtd"
   xmlns:inkscape="http://www.inkscape.org/namespaces/inkscape"
   width="48px"
   height="48px"
   id="svg2388"
   sodipodi:version="0.32"
   inkscape:version="0.43"
   sodipodi:docbase="C:\Digilib\greyskin"
   sodipodi:docname="birds-eye.svg"
   inkscape:export-filename="C:\digilib\greyskin\birds-eye.png"
   inkscape:export-xdpi="60.000000"
   inkscape:export-ydpi="60.000000">
  <defs
     id="defs2390">
    <linearGradient
       id="linearGradient3124">
      <stop
         id="stop7644"
         offset="0.0000000"
         style="stop-color:#000000;stop-opacity:0.19587629;" />
      <stop
         style="stop-color:#545454;stop-opacity:0.22680412;"
         offset="0.50000000"
         id="stop7646" />
      <stop
         style="stop-color:#5f5f5f;stop-opacity:1.0000000;"
         offset="1.0000000"
         id="stop3128" />
    </linearGradient>
  </defs>
  <sodipodi:namedview
     id="base"
     pagecolor="#ffffff"
     bordercolor="#666666"
     borderopacity="1.0"
     inkscape:pageopacity="0.0"
     inkscape:pageshadow="2"
     inkscape:zoom="16"
     inkscape:cx="35.156972"
     inkscape:cy="33.422353"
     inkscape:current-layer="layer3"
     showgrid="false"
     inkscape:grid-bbox="true"
     inkscape:document-units="px"
     inkscape:window-width="1024"
     inkscape:window-height="749"
     inkscape:window-x="-4"
     inkscape:window-y="-4" />
  <metadata
     id="metadata2393">
    <rdf:RDF>
      <cc:Work
         rdf:about="">
        <dc:format>image/svg+xml</dc:format>
        <dc:type
           rdf:resource="http://purl.org/dc/dcmitype/StillImage" />
      </cc:Work>
    </rdf:RDF>
  </metadata>
  <g
     id="layer1"
     inkscape:label="Layer 1"
     inkscape:groupmode="layer">
    <path
       style="fill:#707070;fill-opacity:0.35526314;fill-rule:evenodd;stroke:#000000;stroke-width:0.52918273;stroke-linecap:butt;stroke-linejoin:miter;stroke-opacity:0.50331128;opacity:1.0000000;stroke-miterlimit:4.0000000;stroke-dasharray:none"
       d="M 23.6875 3.53125 C 13.517688 3.9243803 5.3749998 12.44746 5.375 22.875 C 5.375 33.552802 13.927192 42.218749 24.4375 42.21875 C 34.947807 42.21875 43.468749 33.552802 43.46875 22.875 C 43.46875 12.197198 34.947807 3.53125 24.4375 3.53125 C 24.191165 3.53125 23.931575 3.5218149 23.6875 3.53125 z M 12.1875 8.5625 C 20.242446 8.5625 28.288805 8.5625 36.34375 8.5625 C 36.165958 16.203164 36.198276 28.144598 35.96875 37.4375 C 28.043342 37.4375 20.112909 37.4375 12.1875 37.4375 C 12.1875 27.807871 12.1875 18.192129 12.1875 8.5625 z "
       id="path2396" />
  </g>
  <g
     inkscape:groupmode="layer"
     id="layer2"
     inkscape:label="l2"
     style="display:none">
    <path
       style="fill:none;fill-opacity:0.75000000;fill-rule:evenodd;stroke:#000000;stroke-width:1.5000000;stroke-linecap:butt;stroke-linejoin:miter;stroke-miterlimit:4.0000000;stroke-dasharray:none;stroke-opacity:1.0000000"
       d="M 17.000000,13.428571 L 17.000000,33.000000 L 34.000000,23.000000 L 17.000000,13.428571 z "
       id="path7614" />
  </g>
  <g
     inkscape:groupmode="layer"
     id="layer3"
     inkscape:label="l3"
     style="display:inline">
    <path
       style="fill:#000000;fill-opacity:1;fill-rule:evenodd;stroke:#000000;stroke-width:1px;stroke-linecap:butt;stroke-linejoin:miter;stroke-opacity:1"
       d="M 24.5,21.513718 C 23.529478,19.451202 20.04955,17.297524 17.924811,17.280601 C 14.551956,17.154256 13.115556,19.712673 9.7679007,19.880851 C 9.175544,19.995079 7.3045086,19.191243 8.1201307,20.071917 C 9.3529217,21.839129 13.189646,20.035951 15.217464,19.753732 C 17.989372,19.514959 19.047506,20.331214 21.808507,21.214122 C 23.64299,22.764883 23.175698,25.542255 24.233985,26.252244 M 24.5,21.513718 C 25.470522,19.451202 28.636456,17.422524 30.761195,17.405601 C 34.13405,17.279256 35.444825,19.982025 38.792481,20.150203 C 39.384927,20.264152 41.696015,19.191654 40.879073,20.071761 C 39.651613,21.816668 35.758369,19.964307 33.748194,19.710782 C 30.869949,19.485317 29.793252,19.993322 26.924411,20.883904 C 24.731743,21.503029 26.059266,25.524828 24.171484,26.157098"
       id="path2398"
       sodipodi:nodetypes="cccccccccccccc" />
  </g>
</svg>
