<?xml version="1.0" encoding="UTF-8" standalone="no"?>
<!-- Created with Inkscape (http://www.inkscape.org/) -->
<svg
   xmlns:dc="http://purl.org/dc/elements/1.1/"
   xmlns:cc="http://web.resource.org/cc/"
   xmlns:rdf="http://www.w3.org/1999/02/22-rdf-syntax-ns#"
   xmlns:svg="http://www.w3.org/2000/svg"
   xmlns="http://www.w3.org/2000/svg"
   xmlns:sodipodi="http://inkscape.sourceforge.net/DTD/sodipodi-0.dtd"
   xmlns:inkscape="http://www.inkscape.org/namespaces/inkscape"
   width="48px"
   height="48px"
   id="svg2388"
   sodipodi:version="0.32"
   inkscape:version="0.43"
   sodipodi:docbase="C:\src\ECHO\digilib\client\digitallibrary\greyskin"
   sodipodi:docname="zoom-out.svg"
   inkscape:export-filename="C:\src\ECHO\digilib\client\digitallibrary\greyskin\zoom-out.png"
   inkscape:export-xdpi="60.000000"
   inkscape:export-ydpi="60.000000">
  <defs
     id="defs2390">
    <linearGradient
       id="linearGradient3124">
      <stop
         id="stop7644"
         offset="0.0000000"
         style="stop-color:#000000;stop-opacity:0.19587629;" />
      <stop
         style="stop-color:#545454;stop-opacity:0.22680412;"
         offset="0.50000000"
         id="stop7646" />
      <stop
         style="stop-color:#5f5f5f;stop-opacity:1.0000000;"
         offset="1.0000000"
         id="stop3128" />
    </linearGradient>
  </defs>
  <sodipodi:namedview
     id="base"
     pagecolor="#ffffff"
     bordercolor="#666666"
     borderopacity="1.0"
     inkscape:pageopacity="0.0"
     inkscape:pageshadow="2"
     inkscape:zoom="7"
     inkscape:cx="24"
     inkscape:cy="20"
     inkscape:current-layer="layer1"
     showgrid="true"
     inkscape:grid-bbox="true"
     inkscape:document-units="px"
     inkscape:window-width="830"
     inkscape:window-height="540"
     inkscape:window-x="17"
     inkscape:window-y="22" />
  <metadata
     id="metadata2393">
    <rdf:RDF>
      <cc:Work
         rdf:about="">
        <dc:format>image/svg+xml</dc:format>
        <dc:type
           rdf:resource="http://purl.org/dc/dcmitype/StillImage" />
      </cc:Work>
    </rdf:RDF>
  </metadata>
  <g
     id="layer1"
     inkscape:label="Layer 1"
     inkscape:groupmode="layer">
    <path
       style="opacity:1.0000000;fill:#707070;fill-opacity:0.35526314;fill-rule:evenodd;stroke:#000000;stroke-width:0.52918273;stroke-linecap:butt;stroke-linejoin:miter;stroke-miterlimit:4.0000000;stroke-dasharray:none;stroke-opacity:0.50331128"
       d="M 23.4375 3.53125 C 13.378936 4.04697 5.3749998 12.528925 5.375 22.875 C 5.375 33.552802 13.927192 42.218749 24.4375 42.21875 C 34.947807 42.21875 43.468749 33.552802 43.46875 22.875 C 43.46875 12.197198 34.947807 3.53125 24.4375 3.53125 C 24.191165 3.53125 23.931575 3.5218149 23.6875 3.53125 C 23.608048 3.5343213 23.516701 3.5271892 23.4375 3.53125 z M 23.3125 11.4375 C 23.355991 11.433691 23.393865 11.440789 23.4375 11.4375 C 23.442997 11.437086 23.463446 11.437656 23.46875 11.4375 C 23.489416 11.437624 23.510548 11.437243 23.53125 11.4375 C 23.536568 11.437394 23.556985 11.437848 23.5625 11.4375 C 23.56528 11.437324 23.587298 11.437439 23.59375 11.4375 C 23.614386 11.437591 23.635578 11.437274 23.65625 11.4375 C 23.661589 11.437416 23.681923 11.437783 23.6875 11.4375 C 23.871718 11.42815 24.063473 11.4375 24.25 11.4375 C 30.21888 11.4375 35.0625 16.280052 35.0625 22.25 C 35.062502 28.219949 30.21888 33.0625 24.25 33.0625 C 18.281121 33.062498 13.4375 28.219948 13.4375 22.25 C 13.4375 16.601105 17.789186 11.921302 23.3125 11.4375 z "
       id="path2396" />
    <path
       sodipodi:type="arc"
       style="opacity:1;color:#000000;fill:none;fill-opacity:0.35294118;fill-rule:nonzero;stroke:#000000;stroke-width:1.46576595;stroke-linecap:butt;stroke-linejoin:miter;marker:none;marker-start:none;marker-mid:none;marker-end:none;stroke-miterlimit:4;stroke-dasharray:none;stroke-dashoffset:0;stroke-opacity:1;visibility:visible;display:inline;overflow:visible"
       id="path3217"
       sodipodi:cx="27.142857"
       sodipodi:cy="19.714285"
       sodipodi:rx="10.428572"
       sodipodi:ry="10.142858"
       d="M 37.571428 19.714285 A 10.428572 10.142858 0 1 1  16.714285,19.714285 A 10.428572 10.142858 0 1 1  37.571428 19.714285 z"
       transform="matrix(1,0,0,1.047257,-3.321428,1.726256)" />
    <rect
       style="opacity:1;color:#000000;fill:#000000;fill-opacity:1;fill-rule:nonzero;stroke:#000000;stroke-width:1.18805659;stroke-linecap:butt;stroke-linejoin:miter;marker:none;marker-start:none;marker-mid:none;marker-end:none;stroke-miterlimit:4;stroke-dasharray:none;stroke-dashoffset:0;stroke-opacity:1;visibility:visible;display:inline;overflow:visible"
       id="rect2223"
       width="2.5"
       height="10.969203"
       x="-23.834541"
       y="18.436769"
       transform="matrix(0,-1,1,0,0,0)" />
  </g>
  <g
     inkscape:groupmode="layer"
     id="layer2"
     inkscape:label="l2"
     style="display:none">
    <path
       style="fill:none;fill-opacity:0.75;fill-rule:evenodd;stroke:#000000;stroke-width:1.23305082;stroke-linecap:butt;stroke-linejoin:miter;stroke-miterlimit:4;stroke-dasharray:none;stroke-opacity:1"
       d="M 16.866525,15.295096 L 16.866525,31.383475 L 30.841102,23.163136 L 16.866525,15.295096 z "
       id="path7614" />
    <path
       style="fill:none;fill-opacity:0.75;fill-rule:evenodd;stroke:#000000;stroke-width:1px;stroke-linecap:butt;stroke-linejoin:miter;stroke-opacity:1"
       d="M 33,13.571429 L 33,32.428571"
       id="path1367" />
  </g>
  <g
     inkscape:groupmode="layer"
     id="layer3"
     inkscape:label="l3"
     style="display:inline">
    <text
       xml:space="preserve"
       style="font-size:12px;font-style:normal;font-weight:normal;fill:#000000;fill-opacity:1;stroke:none;stroke-width:1px;stroke-linecap:butt;stroke-linejoin:miter;stroke-opacity:1;font-family:Bitstream Vera Sans"
       x="13.142857"
       y="20.142857"
       id="text3280"><tspan
         sodipodi:role="line"
         id="tspan3282"
         x="13.142857"
         y="20.142857" /></text>
    <path
       style="fill:none;fill-opacity:0.75;fill-rule:evenodd;stroke:#000000;stroke-width:5;stroke-linecap:butt;stroke-linejoin:miter;stroke-miterlimit:4;stroke-dasharray:none;stroke-opacity:1"
       d="M 16.5,30.071429 C 6.928571,39.071429 6.928571,39.071429 6.928571,39.071429"
       id="path3290" />
  </g>
</svg>
